<?xml version="1.0" ?><svg enable-background="new 0 0 64 64" version="1.1" viewBox="0 0 64 64" xml:space="preserve" xmlns="http://www.w3.org/2000/svg" xmlns:xlink="http://www.w3.org/1999/xlink"><g id="Glyph_copy_2"><path d="M28.569,17.426c-6.561,0-11.899,5.338-11.899,11.898c0,6.562,5.338,11.899,11.899,11.899s11.899-5.338,11.899-11.899   C40.468,22.764,35.131,17.426,28.569,17.426z"/><path d="M32,0C14.355,0,0,14.355,0,32s14.355,32,32,32s32-14.355,32-32S49.645,0,32,0z M45.571,47.644l-6.454-6.455   c-2.81,2.501-6.498,4.035-10.547,4.035c-8.767,0-15.899-7.133-15.899-15.899s7.132-15.898,15.899-15.898   c8.767,0,15.899,7.132,15.899,15.898c0,3.276-0.997,6.324-2.703,8.857l6.634,6.634L45.571,47.644z"/></g></svg>